<mxfile host="app.diagrams.net" modified="2023-06-07T06:06:44.597Z" agent="Mozilla/5.0 (Macintosh; Intel Mac OS X 10_15_7) AppleWebKit/537.36 (KHTML, like Gecko) Chrome/114.0.0.0 Safari/537.36" version="21.3.7" etag="rdz4ppIHbM5HC_bC2sgl" type="github">
  <diagram name="Page-1" id="W_pX4iI12LxZu8h0wv9L">
    <mxGraphModel>
      <root>
        <mxCell id="0" />
        <mxCell id="1" parent="0" />
      </root>
    </mxGraphModel>
  </diagram>
</mxfile>
